<?xml version="1.0" encoding="UTF-8" standalone="no"?>
<svg width="1400" height="1000" viewBox="0 0 1400 1000" xmlns="http://www.w3.org/2000/svg">
  <defs>
    <style>
      .server-fill { fill: #bfc5cc; }
      .stroke { stroke: #111827; stroke-width: 3; stroke-linecap: round; stroke-linejoin: round; }
      .arrow { stroke: #111827; stroke-width: 3; fill: none; marker-end: url(#arrowhead); }
      .led { fill: #608BFF; }
      .droplet { fill: #5B89FF; }
      .water { fill: #e6f0ff; opacity: 0.65; }
      .dash { stroke-dasharray: 8 8; }
    </style>
    <marker id="arrowhead" markerWidth="12" markerHeight="12" refX="10" refY="6" orient="auto">
      <path d="M0,0 L12,6 L0,12 z" fill="#111827" />
    </marker>
  </defs>

  <g transform="translate(120,220)">
    <rect x="0" y="0" rx="16" ry="16" width="200" height="70" class="server-fill stroke"/>
    <circle cx="170" cy="25" r="6" class="led"/>
    <circle cx="190" cy="25" r="6" class="led"/>
    <rect x="0" y="84" rx="16" ry="16" width="200" height="70" class="server-fill stroke"/>
    <circle cx="170" cy="109" r="6" class="led"/>
    <circle cx="190" cy="109" r="6" class="led"/>
  </g>

  <g transform="translate(120,610)">
    <rect x="0" y="0" rx="16" ry="16" width="200" height="70" class="server-fill stroke"/>
    <circle cx="170" cy="25" r="6" class="led"/>
    <circle cx="190" cy="25" r="6" class="led"/>
    <rect x="0" y="84" rx="16" ry="16" width="200" height="70" class="server-fill stroke"/>
    <circle cx="170" cy="109" r="6" class="led"/>
    <circle cx="190" cy="109" r="6" class="led"/>
  </g>

  <g transform="translate(1080,220)">
    <rect x="0" y="0" rx="16" ry="16" width="200" height="70" class="server-fill stroke"/>
    <circle cx="30" cy="25" r="6" class="led"/>
    <circle cx="50" cy="25" r="6" class="led"/>
    <rect x="0" y="84" rx="16" ry="16" width="200" height="70" class="server-fill stroke"/>
    <circle cx="30" cy="109" r="6" class="led"/>
    <circle cx="50" cy="109" r="6" class="led"/>
  </g>

  <g transform="translate(1080,610)">
    <rect x="0" y="0" rx="16" ry="16" width="200" height="70" class="server-fill stroke"/>
    <circle cx="30" cy="25" r="6" class="led"/>
    <circle cx="50" cy="25" r="6" class="led"/>
    <rect x="0" y="84" rx="16" ry="16" width="200" height="70" class="server-fill stroke"/>
    <circle cx="30" cy="109" r="6" class="led"/>
    <circle cx="50" cy="109" r="6" class="led"/>
  </g>

  <g transform="translate(700,520)">
    <path d="M -150 0 Q 0 30 150 0 L 120 160 Q 0 190 -120 160 Z" class="water"/>
    <ellipse cx="0" cy="0" rx="150" ry="30" class="stroke" fill="none"/>
    <path d="M -150 0 L -120 180 Q 0 210 120 180 L 150 0" class="stroke" fill="none"/>
    <path d="M -120 100 Q 0 120 120 100" class="stroke dash" fill="none"/>
  </g>

  <g transform="translate(700,400)">
    <path class="droplet" d="M0,0 C-12,-18 12,-18 0,0 C-6,8 -6,12 0,18 C6,12 6,8 0,0 Z"/>
    <g transform="translate(-40,-10) scale(0.85)">
      <path class="droplet" d="M0,0 C-12,-18 12,-18 0,0 C-6,8 -6,12 0,18 C6,12 6,8 0,0 Z"/>
    </g>
    <g transform="translate(40,-10) scale(0.85)">
      <path class="droplet" d="M0,0 C-12,-18 12,-18 0,0 C-6,8 -6,12 0,18 C6,12 6,8 0,0 Z"/>
    </g>
  </g>

  <path d="M 320 300 C 450 330, 520 360, 650 420" class="arrow"/>
  <path d="M 320 690 C 460 670, 520 630, 650 580" class="arrow"/>
  <path d="M 1080 300 C 950 330, 880 360, 750 420" class="arrow"/>
  <path d="M 1080 690 C 950 670, 880 630, 750 580" class="arrow"/>
</svg>
