<?xml version="1.0" encoding="UTF-8" standalone="no"?>
<svg width="1400" height="1000" viewBox="0 0 1400 1000" xmlns="http://www.w3.org/2000/svg">
  <defs>
    <style>
      .node-fill { fill: #d1d5db; }
      .stroke { stroke: #111827; stroke-width: 3; stroke-linecap: round; stroke-linejoin: round; }
      .arrow { stroke: #111827; stroke-width: 3; fill: none; marker-end: url(#arrowhead); }
      .cache { fill: #5B89FF; opacity: 0.8; }
      .decor { fill: #93c5fd; }
    </style>
    <marker id="arrowhead" markerWidth="12" markerHeight="12" refX="10" refY="6" orient="auto">
      <path d="M0,0 L12,6 L0,12 z" fill="#111827" />
    </marker>
  </defs>

  <!-- Central cache layer -->
  <g transform="translate(700,500)">
    <rect x="-120" y="-60" width="240" height="120" rx="20" ry="20" class="cache stroke"/>
    <circle cx="0" cy="0" r="35" class="decor stroke"/>
  </g>

  <!-- Service nodes (top-left, top-right, bottom-left, bottom-right) -->
  <g transform="translate(300,250)">
    <rect x="-60" y="-40" width="120" height="80" rx="12" ry="12" class="node-fill stroke"/>
  </g>

  <g transform="translate(1100,250)">
    <rect x="-60" y="-40" width="120" height="80" rx="12" ry="12" class="node-fill stroke"/>
  </g>

  <g transform="translate(300,750)">
    <rect x="-60" y="-40" width="120" height="80" rx="12" ry="12" class="node-fill stroke"/>
  </g>

  <g transform="translate(1100,750)">
    <rect x="-60" y="-40" width="120" height="80" rx="12" ry="12" class="node-fill stroke"/>
  </g>

  <!-- Arrows from nodes to central cache -->
  <path d="M 360 250 C 500 300, 560 360, 640 460" class="arrow"/>
  <path d="M 1040 250 C 900 300, 840 360, 760 460" class="arrow"/>
  <path d="M 360 750 C 500 700, 560 640, 640 540" class="arrow"/>
  <path d="M 1040 750 C 900 700, 840 640, 760 540" class="arrow"/>

</svg>
